<svg width="35" height="35" viewBox="0 0 35 35" fill="none" xmlns="http://www.w3.org/2000/svg">
<path d="M10.2083 10.2083H10.2229M10.2083 4.375H17.5C18.2467 4.375 18.9933 4.65937 19.5621 5.22958L29.7704 15.4379C30.3172 15.9849 30.6244 16.7266 30.6244 17.5C30.6244 18.2734 30.3172 19.0151 29.7704 19.5621L19.5621 29.7704C19.0151 30.3172 18.2734 30.6244 17.5 30.6244C16.7266 30.6244 15.9849 30.3172 15.4379 29.7704L5.22958 19.5621C4.95834 19.2916 4.74321 18.9702 4.59655 18.6163C4.4499 18.2624 4.37461 17.8831 4.375 17.5V10.2083C4.375 8.66124 4.98958 7.17751 6.08355 6.08354C7.17751 4.98958 8.66124 4.375 10.2083 4.375Z" stroke="#18181B" stroke-width="2" stroke-linecap="round" stroke-linejoin="round"/>
</svg>
